# xmcd
#
# Track frame offsets:
#	150
#	24417
#	39072
#	59711
#	80949
#	97125
#	123966
#	132059
#	146318
#	169050
#	194172
#
# Disc length: 2885 seconds
# Revision: 0
# Processed by: cddbd v1.5.2PL0 Copyright (c) Steve Scherf et al.
# Submitted via: dBpowerAMP V12.0
#
DISCID=9a0b430b
DTITLE=Holly and Jon - The Summit Sessions
DYEAR=2012
DGENRE=Blues Acoustic
TTITLE0=Back to 1929
TTITLE1=If I had Possession
TTITLE2=I Can't Sleep
TTITLE3=Come On In My Kitchen
TTITLE4=Leavin' Blues
TTITLE5=Heartbreaker Blues
TTITLE6=The Resurrection Of Gonzo (Part 1)
TTITLE7=They Is Us
TTITLE8=Wash Over Me
TTITLE9=Home Reno Blues
TTITLE10=Black Crow
EXTD=
EXTT0=
EXTT1=
EXTT2=
EXTT3=
EXTT4=
EXTT5=
EXTT6=
EXTT7=
EXTT8=
EXTT9=
EXTT10=
PLAYORDER=
